<?xml version="1.0" encoding="iso-8859-1"?>
<!-- Generator: Adobe Illustrator 19.0.0, SVG Export Plug-In . SVG Version: 6.00 Build 0)  -->
<svg version="1.1" id="Capa_1" xmlns="http://www.w3.org/2000/svg" xmlns:xlink="http://www.w3.org/1999/xlink" x="0px" y="0px"
	 viewBox="0 0 512 512" style="enable-background:new 0 0 512 512;" xml:space="preserve">
<g>
	<g>
		<path d="M497,231c8.284,0,15-6.716,15-15v-80c0-8.284-6.716-15-15-15H15c-8.284,0-15,6.716-15,15v80c0,8.284,6.716,15,15,15
			c13.785,0,25,11.215,25,25c0,13.785-11.215,25-25,25c-8.284,0-15,6.716-15,15v80c0,8.284,6.716,15,15,15h111
			c8.284,0,15-6.716,15-15v-25.001h30V376c0,8.284,6.716,15,15,15h311c8.284,0,15-6.716,15-15v-80c0-8.284-6.716-15-15-15
			c-13.785,0-25-11.215-25-25C472,242.215,483.215,231,497,231z M482,308.921V361h-21.833v-25.001c0-8.284-6.716-15-15-15
			s-15,6.716-15,15V361h-21.834v-25.001c0-8.284-6.716-15-15-15s-15,6.716-15,15V361H356.5v-25.001c0-8.284-6.716-15-15-15
			s-15,6.716-15,15V361h-21.833v-25.001c0-8.284-6.716-15-15-15s-15,6.716-15,15V361h-21.834v-25.001c0-8.284-6.716-15-15-15
			s-15,6.716-15,15V361H201v-25.001c0-8.284-6.716-15-15-15h-60c-8.284,0-15,6.716-15,15V361H89v-25.001c0-8.284-6.716-15-15-15
			s-15,6.716-15,15V361H30v-52.079c23.061-6.545,40-27.792,40-52.921c0-25.129-16.939-46.376-40-52.921V151h452v52.079
			c-23.061,6.545-40,27.792-40,52.921C442,281.129,458.939,302.376,482,308.921z"/>
	</g>
</g>
<g>
	<g>
		<path d="M407,171H105c-8.284,0-15,6.716-15,15v99.999c0,8.284,6.716,15,15,15h302c8.284,0,15-6.716,15-15V186
			C422,177.716,415.284,171,407,171z M190.667,270.999H120V201h70.667V270.999z M291.333,270.999h-70.666V201h70.666V270.999z
			 M392,270.999h-70.667V201H392V270.999z"/>
	</g>
</g>
<g>
</g>
<g>
</g>
<g>
</g>
<g>
</g>
<g>
</g>
<g>
</g>
<g>
</g>
<g>
</g>
<g>
</g>
<g>
</g>
<g>
</g>
<g>
</g>
<g>
</g>
<g>
</g>
<g>
</g>
</svg>
